<mxfile host="app.diagrams.net" agent="Mozilla/5.0 (X11; Linux x86_64; rv:128.0) Gecko/20100101 Firefox/128.0" version="28.0.9">
  <diagram name="Page-1" id="rn_7WjOHjOqx-MI5j4iF">
    <mxGraphModel dx="731" dy="391" grid="1" gridSize="10" guides="1" tooltips="1" connect="1" arrows="1" fold="1" page="1" pageScale="1" pageWidth="850" pageHeight="1100" math="0" shadow="0">
      <root>
        <mxCell id="0" />
        <mxCell id="1" parent="0" />
        <mxCell id="qmlK2MABJxRojq-ChtWX-1" value="" style="rounded=1;whiteSpace=wrap;html=1;arcSize=0;" vertex="1" parent="1">
          <mxGeometry x="200" y="220" width="440" height="320" as="geometry" />
        </mxCell>
        <mxCell id="qmlK2MABJxRojq-ChtWX-2" value="" style="rounded=1;whiteSpace=wrap;html=1;arcSize=11;" vertex="1" parent="1">
          <mxGeometry x="500" y="240" width="120" height="280" as="geometry" />
        </mxCell>
        <mxCell id="qmlK2MABJxRojq-ChtWX-7" value="" style="rounded=1;whiteSpace=wrap;html=1;" vertex="1" parent="1">
          <mxGeometry x="510" y="250" width="100" height="50" as="geometry" />
        </mxCell>
        <mxCell id="qmlK2MABJxRojq-ChtWX-8" value="&amp;nbsp; Search..." style="rounded=1;whiteSpace=wrap;html=1;arcSize=50;align=left;" vertex="1" parent="1">
          <mxGeometry x="220" y="240" width="150" height="20" as="geometry" />
        </mxCell>
        <mxCell id="qmlK2MABJxRojq-ChtWX-9" value="Price" style="rounded=1;whiteSpace=wrap;html=1;arcSize=50;" vertex="1" parent="1">
          <mxGeometry x="380" y="240" width="50" height="20" as="geometry" />
        </mxCell>
        <mxCell id="qmlK2MABJxRojq-ChtWX-10" value="&lt;div&gt;Radius&lt;/div&gt;" style="rounded=1;whiteSpace=wrap;html=1;arcSize=50;" vertex="1" parent="1">
          <mxGeometry x="440" y="240" width="50" height="20" as="geometry" />
        </mxCell>
        <mxCell id="qmlK2MABJxRojq-ChtWX-11" value="" style="rounded=1;whiteSpace=wrap;html=1;" vertex="1" parent="1">
          <mxGeometry x="510" y="310" width="100" height="50" as="geometry" />
        </mxCell>
        <mxCell id="qmlK2MABJxRojq-ChtWX-12" value="" style="rounded=1;whiteSpace=wrap;html=1;" vertex="1" parent="1">
          <mxGeometry x="510" y="370" width="100" height="50" as="geometry" />
        </mxCell>
        <mxCell id="qmlK2MABJxRojq-ChtWX-13" value="" style="rounded=1;whiteSpace=wrap;html=1;" vertex="1" parent="1">
          <mxGeometry x="510" y="430" width="100" height="50" as="geometry" />
        </mxCell>
        <mxCell id="qmlK2MABJxRojq-ChtWX-14" value="" style="rounded=1;whiteSpace=wrap;html=1;" vertex="1" parent="1">
          <mxGeometry x="510" y="490" width="100" height="30" as="geometry" />
        </mxCell>
        <mxCell id="qmlK2MABJxRojq-ChtWX-21" value="" style="rounded=1;whiteSpace=wrap;html=1;arcSize=0;" vertex="1" parent="1">
          <mxGeometry x="760" y="200" width="440" height="320" as="geometry" />
        </mxCell>
        <mxCell id="qmlK2MABJxRojq-ChtWX-22" value="" style="rounded=0;whiteSpace=wrap;html=1;" vertex="1" parent="1">
          <mxGeometry x="760" y="200" width="440" height="30" as="geometry" />
        </mxCell>
        <mxCell id="qmlK2MABJxRojq-ChtWX-24" value="" style="rounded=0;whiteSpace=wrap;html=1;" vertex="1" parent="1">
          <mxGeometry x="1130" y="230" width="70" height="290" as="geometry" />
        </mxCell>
        <mxCell id="qmlK2MABJxRojq-ChtWX-25" value="" style="rounded=0;whiteSpace=wrap;html=1;" vertex="1" parent="1">
          <mxGeometry x="1135" y="235" width="60" height="60" as="geometry" />
        </mxCell>
        <mxCell id="qmlK2MABJxRojq-ChtWX-30" value="" style="rounded=0;whiteSpace=wrap;html=1;" vertex="1" parent="1">
          <mxGeometry x="1135" y="300" width="60" height="60" as="geometry" />
        </mxCell>
        <mxCell id="qmlK2MABJxRojq-ChtWX-31" value="" style="rounded=0;whiteSpace=wrap;html=1;" vertex="1" parent="1">
          <mxGeometry x="1135" y="365" width="60" height="60" as="geometry" />
        </mxCell>
        <mxCell id="qmlK2MABJxRojq-ChtWX-32" value="" style="rounded=0;whiteSpace=wrap;html=1;" vertex="1" parent="1">
          <mxGeometry x="1135" y="430" width="60" height="60" as="geometry" />
        </mxCell>
        <mxCell id="qmlK2MABJxRojq-ChtWX-34" value="&amp;nbsp; Search..." style="rounded=1;whiteSpace=wrap;html=1;arcSize=50;align=left;" vertex="1" parent="1">
          <mxGeometry x="770" y="240" width="150" height="20" as="geometry" />
        </mxCell>
        <mxCell id="qmlK2MABJxRojq-ChtWX-35" value="&lt;font style=&quot;font-size: 10px;&quot;&gt;Price&lt;/font&gt;" style="rounded=1;whiteSpace=wrap;html=1;arcSize=50;" vertex="1" parent="1">
          <mxGeometry x="950" y="240" width="50" height="20" as="geometry" />
        </mxCell>
        <mxCell id="qmlK2MABJxRojq-ChtWX-36" value="&lt;div&gt;&lt;font style=&quot;font-size: 10px;&quot;&gt;Radius&lt;/font&gt;&lt;/div&gt;" style="rounded=1;whiteSpace=wrap;html=1;arcSize=50;" vertex="1" parent="1">
          <mxGeometry x="1006" y="240" width="50" height="20" as="geometry" />
        </mxCell>
        <mxCell id="qmlK2MABJxRojq-ChtWX-37" value="&lt;font style=&quot;font-size: 10px;&quot;&gt;Saved&lt;/font&gt;" style="rounded=1;whiteSpace=wrap;html=1;arcSize=50;" vertex="1" parent="1">
          <mxGeometry x="1080" y="205" width="50" height="20" as="geometry" />
        </mxCell>
        <mxCell id="qmlK2MABJxRojq-ChtWX-38" value="&lt;font style=&quot;font-size: 10px;&quot;&gt;Login&lt;/font&gt;" style="rounded=1;whiteSpace=wrap;html=1;arcSize=50;" vertex="1" parent="1">
          <mxGeometry x="1140" y="205" width="50" height="20" as="geometry" />
        </mxCell>
        <mxCell id="qmlK2MABJxRojq-ChtWX-40" value="" style="ellipse;whiteSpace=wrap;html=1;aspect=fixed;" vertex="1" parent="1">
          <mxGeometry x="770" y="207.5" width="15" height="15" as="geometry" />
        </mxCell>
        <mxCell id="qmlK2MABJxRojq-ChtWX-41" value="DEKAT BILIK" style="text;html=1;align=center;verticalAlign=middle;resizable=0;points=[];autosize=1;strokeColor=none;fillColor=none;" vertex="1" parent="1">
          <mxGeometry x="775" y="199" width="100" height="30" as="geometry" />
        </mxCell>
        <mxCell id="qmlK2MABJxRojq-ChtWX-43" value="" style="ellipse;whiteSpace=wrap;html=1;aspect=fixed;" vertex="1" parent="1">
          <mxGeometry x="925" y="240" width="20" height="20" as="geometry" />
        </mxCell>
      </root>
    </mxGraphModel>
  </diagram>
</mxfile>
